<svg width="560" height="433" viewBox="0 0 560 433" fill="none" xmlns="http://www.w3.org/2000/svg">
  <circle cx="278.5" cy="216.5" r="214" stroke="#222222" stroke-width="3"/>
  <path d="M281 2C133.019 98.5499 114.584 318.027 281 431" stroke="#222222" stroke-width="3"/>
  <path d="M281 2C428.981 98.5499 447.416 318.027 281 431" stroke="#222222" stroke-width="3"/>
  <line x1="281.5" y1="1" x2="281.5" y2="432" stroke="#222222" stroke-width="3"/>
  <path d="M129 62.8901C52.568 70.5525 2 83.8629 2 99.0001C2 122.748 126.465 142 280 142C433.535 142 558 122.748 558 99.0001C558 83.6004 505.663 70.0914 427 62.4966" stroke="#222222" stroke-width="3"/>
  <path d="M129 62.8901C52.568 70.5525 2 83.8629 2 99.0001C2 122.748 126.465 142 280 142C433.535 142 558 122.748 558 99.0001C558 83.6004 505.663 70.0914 427 62.4966" stroke="#222222" stroke-width="3"/>
  <path d="M65.5 189.644C25.8307 197.078 2 206.608 2 217C2 240.748 126.465 260 280 260C433.535 260 558 240.748 558 217C558 206.306 532.763 196.524 491 189.001" stroke="#222222" stroke-width="3"/>
  <path d="M83 304.66C32.9413 312.436 2 323.159 2 335C2 358.748 126.465 378 280 378C433.535 378 558 358.748 558 335C558 322.925 525.82 312.012 474 304.201" stroke="#222222" stroke-width="3"/>
</svg>